<svg width="30" height="30" viewBox="0 0 30 30" fill="none" xmlns="http://www.w3.org/2000/svg">
<path d="M24.1401 1C26.1227 1 27.73 2.60782 27.73 4.59082C27.7297 6.57362 26.1226 8.18066 24.1401 8.18066C22.1578 8.18062 20.5505 6.57359 20.5503 4.59082C20.5503 2.60785 22.1576 1.00005 24.1401 1Z" stroke="white" stroke-width="2"/>
<path d="M5.78223 21.8066C7.7648 21.8066 9.37207 23.4145 9.37207 25.3975C9.37183 27.3803 7.76465 28.9873 5.78223 28.9873C3.79984 28.9873 2.19262 27.3802 2.19238 25.3975C2.19238 23.4145 3.79969 21.8067 5.78223 21.8066Z" stroke="white" stroke-width="2"/>
<path d="M19.8578 4.58789H5.47607C-0.338095 4.58789 -0.643994 15.2988 5.47607 15.2988H24.7537C30.2614 15.2988 30.5674 25.7036 24.7537 25.7036H9.75994" stroke="white" stroke-width="2"/>
</svg>
