<svg width="31" height="32" viewBox="0 0 31 32" fill="none" xmlns="http://www.w3.org/2000/svg">
<path d="M15.0781 6.21387C18.2681 6.21387 24.6481 8.12799 24.6481 15.7845" stroke="white" stroke-width="2" stroke-linecap="round"/>
<path d="M15.3169 1.42871C20.1019 1.42871 29.6719 4.2999 29.6719 15.7847" stroke="white" stroke-width="2" stroke-linecap="round"/>
<path d="M13.6424 17.7017L9.81439 13.6342C7.18263 10.0452 13.6424 9.08816 11.7284 6.45623L8.1552 1.54278C7.99262 1.31923 7.74477 1.17294 7.47049 1.13865L6.42291 1.00769C6.14475 0.972923 5.86477 1.0565 5.65119 1.23805L1.46271 4.79849C1.29332 4.94247 1.17477 5.13948 1.13718 5.35859C0.174532 10.9701 4.41485 16.1397 9.57514 21.7692" stroke="white" stroke-width="2" stroke-linecap="round"/>
<path d="M13.2527 17.3136L17.3075 21.1551C20.8877 23.7986 21.8657 17.3416 24.4912 19.2643L29.3928 22.8537C29.6158 23.017 29.7612 23.2653 29.7946 23.5397L29.9222 24.5879C29.956 24.8661 29.8716 25.1458 29.6894 25.3588L26.1155 29.5359C25.971 29.7049 25.7736 29.8225 25.5546 29.8608C19.9443 30.8435 14.8865 27.5453 9.09675 21.2891" stroke="white" stroke-width="2" stroke-linecap="round"/>
</svg>
