<svg width="30" height="33" viewBox="0 0 30 33" fill="none" xmlns="http://www.w3.org/2000/svg">
<path d="M14.999 1C18.6102 1 21.5381 3.92744 21.5381 7.53809C21.5379 11.1486 18.6101 14.0752 14.999 14.0752C11.3881 14.075 8.46109 11.1485 8.46094 7.53809C8.46094 3.92757 11.388 1.0002 14.999 1Z" stroke="white" stroke-width="2"/>
<path d="M29 32.308C29 30.3283 28.6379 28.3679 27.9343 26.5388C27.2307 24.7098 26.1995 23.0479 24.8995 21.648C23.5995 20.2481 22.0561 19.1376 20.3576 18.38C18.659 17.6224 16.8385 17.2324 15 17.2324C13.1615 17.2324 11.341 17.6224 9.64243 18.38C7.94387 19.1376 6.40052 20.2481 5.1005 21.648C3.80048 23.0479 2.76925 24.7098 2.06569 26.5388C1.36212 28.3679 1 30.3283 1 32.308" stroke="white" stroke-width="2"/>
</svg>
